<svg width="179" height="44" viewBox="0 0 179 44" fill="none" xmlns="http://www.w3.org/2000/svg">
<path d="M9.33572 25.8321H3.61454C1.61878 25.8321 0 24.1449 0 22.0648V11.0402H5.0027V20.7566H14.3384V30.1957C20.4854 25.6564 27.4838 22.2913 35.0367 20.4145C27.435 24.658 20.5696 30.2188 14.7509 36.8474C12.8216 39.0385 11.0122 41.3497 9.32685 43.7673V25.8321H9.33572Z" fill="#2A8FEA"/>
<path d="M35.0367 4.31505V15.4552C33.205 15.8712 31.3955 16.3612 29.6171 16.9252V6.20102H0V4.31505C0 2.23493 1.61878 0.547729 3.61454 0.547729H31.4221C33.4179 0.547729 35.0367 2.23493 35.0367 4.31505Z" fill="#2A8FEA"/>
<path d="M52.9152 28.9329L47.8828 8.78992H50.1395L54.0041 25.2024H54.1797L58.1181 8.78992H60.647L64.5626 25.2024H64.761L68.6027 8.78992H70.8823L65.827 28.9329H63.522L59.4564 12.9007H59.3088L55.2432 28.9329H52.9152Z" fill="#2C2B2B"/>
<path d="M75.637 28.927C74.7577 28.927 73.9551 28.7457 73.2343 28.3858C72.5135 28.0233 71.9384 27.5014 71.5167 26.8147C71.095 26.128 70.8828 25.2985 70.8828 24.3261C70.8828 23.4691 71.0413 22.7769 71.3557 22.2468C71.6701 21.7167 72.0918 21.2964 72.6183 20.9888C73.1449 20.6811 73.7251 20.4531 74.3615 20.2993C74.998 20.1482 75.637 20.0274 76.2836 19.9395C77.1297 19.8241 77.8172 19.7335 78.3438 19.6703C78.8703 19.6071 79.2563 19.5028 79.5016 19.3489C79.747 19.1979 79.8697 18.9397 79.8697 18.5716V18.4919C79.8697 17.5361 79.6269 16.7944 79.1412 16.2643C78.6556 15.7342 77.9195 15.4677 76.9329 15.4677C75.9462 15.4677 75.1232 15.7067 74.543 16.1846C73.9628 16.6626 73.5564 17.1735 73.3238 17.7173L71.2816 16.9428C71.6471 16.0336 72.1352 15.3249 72.7436 14.8167C73.3545 14.3086 74.0165 13.9515 74.7347 13.7455C75.4529 13.5395 76.1609 13.4379 76.8562 13.4379C77.3035 13.4379 77.8198 13.4928 78.4 13.6054C78.9802 13.718 79.5476 13.9488 80.0997 14.3004C80.6518 14.6519 81.1094 15.1821 81.4697 15.8935C81.8301 16.6022 82.0116 17.5498 82.0116 18.7364V28.5836H79.8697V26.551H79.77C79.6294 26.8724 79.3892 27.2185 79.0467 27.5865C78.7067 27.9573 78.2569 28.2732 77.6971 28.5369C77.1373 28.8006 76.4498 28.9325 75.637 28.9325M75.9616 26.8669C76.8076 26.8669 77.5233 26.6883 78.1035 26.3313C78.6837 25.9742 79.1233 25.5127 79.4224 24.9469C79.7214 24.381 79.8697 23.7905 79.8697 23.1752V21.0629C79.7777 21.1783 79.5809 21.2827 79.2793 21.3761C78.9751 21.4695 78.6275 21.5519 78.2339 21.6233C77.8402 21.6947 77.4568 21.7551 77.0811 21.8046C76.7079 21.854 76.4089 21.8925 76.184 21.9172C75.6267 21.9968 75.1079 22.1259 74.6274 22.299C74.1468 22.472 73.7583 22.7302 73.4644 23.0681C73.1704 23.4087 73.0222 23.8701 73.0222 24.4607C73.0222 25.2545 73.2982 25.8533 73.8503 26.2598C74.4024 26.6664 75.1053 26.8696 75.9616 26.8696" fill="#2C2B2B"/>
<path d="M95.1106 17.0046L93.1176 17.5688C92.9289 17.0597 92.6021 16.5753 92.1397 16.1157C91.6773 15.6561 90.9599 15.4249 89.9846 15.4249C89.1051 15.4249 88.3716 15.6368 87.7844 16.0607C87.1971 16.4845 86.9048 17.0157 86.9048 17.6487C86.9048 18.2211 87.1068 18.6752 87.5054 19.0165C87.9066 19.355 88.5337 19.6329 89.3894 19.8476L91.5392 20.3843C92.8253 20.7063 93.7846 21.2017 94.4197 21.8704C95.0548 22.542 95.371 23.3951 95.371 24.4299C95.371 25.2886 95.1345 26.0565 94.6588 26.7362C94.1832 27.416 93.5242 27.9527 92.6791 28.3435C91.8341 28.7371 90.8509 28.9325 89.7295 28.9325C88.2547 28.9325 87.035 28.5967 86.0731 27.9279C85.1111 27.2564 84.4999 26.2876 84.2422 25.0189L86.3388 24.4822C86.5381 25.2859 86.9181 25.8886 87.4841 26.2931C88.0501 26.695 88.7888 26.8959 89.703 26.8959C90.7287 26.8959 91.5498 26.6674 92.1689 26.2051C92.7854 25.7455 93.0937 25.1978 93.0937 24.562C93.0937 23.508 92.3762 22.8007 90.9439 22.4429L88.5364 21.8539C87.2077 21.5237 86.2325 21.02 85.6107 20.3403C84.9889 19.6605 84.678 18.8073 84.678 17.7808C84.678 16.9331 84.9092 16.1818 85.3715 15.5295C85.8339 14.8772 86.4663 14.3653 87.2689 13.9938C88.0714 13.6223 88.9775 13.4379 89.9873 13.4379C91.4275 13.4379 92.5569 13.7654 93.3727 14.4231C94.1885 15.0809 94.7678 15.9396 95.1132 17.0046" fill="#2C2B2B"/>
<path d="M101.18 28.927C100.243 28.927 99.3892 28.7457 98.6177 28.3858C97.8461 28.0233 97.2354 27.5014 96.7855 26.8147C96.3357 26.128 96.1094 25.2985 96.1094 24.3261C96.1094 23.4691 96.2784 22.7769 96.6138 22.2468C96.9491 21.7167 97.399 21.2964 97.9606 20.9888C98.5222 20.6811 99.1439 20.4531 99.82 20.2993C100.496 20.1482 101.18 20.0274 101.873 19.9395C102.775 19.8241 103.509 19.7335 104.07 19.6703C104.632 19.6071 105.044 19.5028 105.306 19.3489C105.567 19.1979 105.698 18.9397 105.698 18.5716V18.4919C105.698 17.5361 105.439 16.7944 104.921 16.2643C104.403 15.7342 103.618 15.4677 102.563 15.4677C101.508 15.4677 100.632 15.7067 100.014 16.1846C99.3947 16.6626 98.9612 17.1735 98.7131 17.7173L96.5347 16.9428C96.9246 16.0336 97.4453 15.3249 98.0942 14.8167C98.7431 14.3086 99.4519 13.9515 100.218 13.7455C100.984 13.5395 101.739 13.4379 102.481 13.4379C102.958 13.4379 103.509 13.4928 104.128 13.6054C104.747 13.718 105.352 13.9488 105.941 14.3004C106.53 14.6519 107.015 15.1821 107.402 15.8935C107.787 16.6022 107.98 17.5498 107.98 18.7364V28.5836H105.695V26.551H105.589C105.439 26.8724 105.183 27.2185 104.817 27.5865C104.455 27.9573 103.975 28.2732 103.375 28.5369C102.778 28.8006 102.045 28.9325 101.178 28.9325M101.527 26.8669C102.429 26.8669 103.193 26.6883 103.811 26.3313C104.43 25.9742 104.899 25.5127 105.218 24.9469C105.537 24.381 105.695 23.7905 105.695 23.1752V21.0629C105.597 21.1783 105.387 21.2827 105.066 21.3761C104.741 21.4695 104.37 21.5519 103.95 21.6233C103.531 21.6947 103.119 21.7551 102.721 21.8046C102.323 21.854 102.004 21.8925 101.764 21.9172C101.17 21.9968 100.616 22.1259 100.104 22.299C99.591 22.472 99.1766 22.7302 98.863 23.0681C98.5495 23.4087 98.3914 23.8701 98.3914 24.4607C98.3914 25.2545 98.6858 25.8533 99.2747 26.2598C99.8636 26.6664 100.613 26.8696 101.527 26.8696" fill="#2C2B2B"/>
<path d="M114.948 28.927C114.069 28.927 113.269 28.7457 112.546 28.3858C111.826 28.0233 111.251 27.5014 110.829 26.8147C110.405 26.128 110.195 25.2985 110.195 24.3261C110.195 23.4691 110.351 22.7769 110.668 22.2468C110.985 21.7167 111.404 21.2964 111.93 20.9888C112.457 20.6811 113.037 20.4531 113.673 20.2993C114.31 20.1482 114.948 20.0274 115.597 19.9395C116.443 19.8241 117.131 19.7335 117.657 19.6703C118.184 19.6071 118.569 19.5028 118.815 19.3489C119.06 19.1979 119.183 18.9397 119.183 18.5716V18.4919C119.183 17.5361 118.94 16.7944 118.454 16.2643C117.969 15.7342 117.233 15.4677 116.247 15.4677C115.26 15.4677 114.437 15.7067 113.857 16.1846C113.277 16.6626 112.871 17.1735 112.638 17.7173L110.597 16.9428C110.962 16.0336 111.45 15.3249 112.058 14.8167C112.669 14.3086 113.331 13.9515 114.049 13.7455C114.767 13.5395 115.475 13.4379 116.17 13.4379C116.62 13.4379 117.133 13.4928 117.713 13.6054C118.293 13.718 118.861 13.9488 119.413 14.3004C119.965 14.6519 120.42 15.1821 120.782 15.8935C121.143 16.6022 121.324 17.5498 121.324 18.7364V28.5836H119.183V26.551H119.083C118.942 26.8724 118.702 27.2185 118.36 27.5865C118.02 27.9573 117.57 28.2732 117.011 28.5369C116.451 28.8006 115.764 28.9325 114.951 28.9325M115.273 26.8669C116.119 26.8669 116.832 26.6883 117.414 26.3313C117.994 25.9742 118.434 25.5127 118.733 24.9469C119.032 24.381 119.18 23.7905 119.18 23.1752V21.0629C119.088 21.1783 118.891 21.2827 118.59 21.3761C118.288 21.4695 117.938 21.5519 117.545 21.6233C117.151 21.6947 116.768 21.7551 116.395 21.8046C116.022 21.854 115.723 21.8925 115.498 21.9172C114.941 21.9968 114.422 22.1259 113.942 22.299C113.461 22.472 113.073 22.7302 112.779 23.0681C112.485 23.4087 112.337 23.8701 112.337 24.4607C112.337 25.2545 112.613 25.8533 113.165 26.2598C113.717 26.6664 114.419 26.8696 115.275 26.8696" fill="#2C2B2B"/>
<path d="M132.048 28.9303C130.423 28.9303 128.97 28.5303 127.688 27.733C126.405 26.9357 125.399 25.7844 124.663 24.2844C123.93 22.7844 123.562 20.9791 123.562 18.8737C123.562 16.7683 123.933 14.9494 124.676 13.444C125.42 11.9386 126.431 10.7873 127.711 9.98732C128.993 9.19003 130.439 8.79004 132.045 8.79004C133.065 8.79004 134.023 8.94409 134.914 9.25219C135.805 9.5603 136.6 10.0089 137.297 10.6008C137.995 11.1927 138.564 11.917 139.009 12.7738C139.451 13.6305 139.744 14.6008 139.885 15.6899H136.5C136.408 15.0927 136.232 14.5656 135.971 14.1089C135.711 13.6521 135.387 13.2657 135.001 12.944C134.615 12.6251 134.176 12.3819 133.688 12.2197C133.2 12.0576 132.671 11.9765 132.109 11.9765C131.098 11.9765 130.201 12.2413 129.422 12.7738C128.643 13.3062 128.033 14.0873 127.593 15.117C127.154 16.1494 126.934 17.4007 126.934 18.8737C126.934 20.3466 127.154 21.6223 127.598 22.6439C128.043 23.6655 128.651 24.4385 129.427 24.9601C130.201 25.4817 131.093 25.7439 132.094 25.7439C132.651 25.7439 133.169 25.6682 133.65 25.5141C134.13 25.3601 134.567 25.1277 134.963 24.8168C135.356 24.506 135.685 24.1277 135.946 23.6844C136.209 23.2412 136.393 22.7304 136.5 22.152H139.885C139.76 23.0898 139.489 23.9709 139.07 24.7925C138.651 25.6141 138.104 26.333 137.427 26.952C136.751 27.5709 135.961 28.0546 135.057 28.406C134.153 28.7573 133.149 28.933 132.048 28.933" fill="#2C2B2B"/>
<path d="M145.467 20.0925V28.933H142.109V8.79004H145.391V16.4009H145.569C145.902 15.546 146.416 14.8687 147.113 14.3719C147.813 13.8778 148.709 13.628 149.807 13.628C150.796 13.628 151.655 13.8501 152.392 14.2914C153.128 14.7327 153.7 15.3767 154.109 16.2233C154.518 17.0698 154.722 18.1024 154.722 19.3181V28.9302H151.351V19.8732C151.351 18.8463 151.105 18.0496 150.61 17.4862C150.117 16.9227 149.427 16.6424 148.542 16.6424C147.947 16.6424 147.417 16.7784 146.951 17.0476C146.487 17.3169 146.122 17.7082 145.86 18.2162C145.595 18.7241 145.464 19.3486 145.464 20.087" fill="#2C2B2B"/>
<path d="M161.112 28.9297C160.18 28.9297 159.342 28.7562 158.6 28.4146C157.858 28.0703 157.275 27.5634 156.845 26.8913C156.418 26.2192 156.203 25.3928 156.203 24.4094C156.203 23.5693 156.356 22.8696 156.66 22.3159C156.966 21.7622 157.383 21.3188 157.909 20.9882C158.439 20.6577 159.033 20.4042 159.696 20.2307C160.36 20.0572 161.045 19.9332 161.752 19.8616C162.614 19.7624 163.313 19.6798 163.845 19.6054C164.377 19.5338 164.764 19.4181 165.003 19.2583C165.245 19.0986 165.363 18.8479 165.363 18.5063V18.4402C165.363 17.7158 165.153 17.1538 164.734 16.7489C164.315 16.3467 163.705 16.1456 162.902 16.1456C162.055 16.1456 161.386 16.3329 160.895 16.7103C160.4 17.0849 160.067 17.5284 159.892 18.038L156.687 17.5698C156.939 16.658 157.359 15.895 157.942 15.2834C158.527 14.6719 159.239 14.2092 160.08 13.9006C160.921 13.5921 161.854 13.4379 162.875 13.4379C163.573 13.4379 164.272 13.5205 164.968 13.6858C165.667 13.8511 166.309 14.1293 166.892 14.5232C167.475 14.9171 167.943 15.4432 168.292 16.1071C168.641 16.7682 168.816 17.5973 168.816 18.589V28.6239H165.505V26.558H165.401C165.191 26.9684 164.898 27.3568 164.517 27.7177C164.138 28.0785 163.668 28.3733 163.103 28.5964C162.542 28.8195 161.875 28.9325 161.107 28.9325M161.991 26.3266C162.689 26.3266 163.291 26.1861 163.796 25.9024C164.304 25.6214 164.697 25.2441 164.973 24.7758C165.253 24.3047 165.393 23.7951 165.393 23.2387V21.4813C165.28 21.5722 165.094 21.6548 164.842 21.7292C164.589 21.8036 164.302 21.8752 163.979 21.9358C163.657 21.9991 163.34 22.0515 163.031 22.0983C162.719 22.1424 162.453 22.1782 162.227 22.2057C161.711 22.2774 161.252 22.3958 160.846 22.5611C160.44 22.7264 160.121 22.9522 159.884 23.2387C159.648 23.5252 159.53 23.8971 159.53 24.3516C159.53 25.0044 159.761 25.4975 160.223 25.828C160.685 26.1586 161.273 26.3239 161.991 26.3239" fill="#2C2B2B"/>
<path d="M178.2 16.5845H170.297V13.8722H178.2V16.5845ZM172.233 10.3385H175.476V24.2659C175.476 24.8498 175.595 25.281 175.833 25.562C176.071 25.8404 176.451 25.9823 176.967 25.9823C177.106 25.9823 177.263 25.9686 177.435 25.9413C177.607 25.914 177.764 25.884 177.904 25.8485L178.458 28.5855C178.111 28.7001 177.762 28.7874 177.41 28.8447C177.056 28.902 176.704 28.932 176.349 28.932C175.066 28.932 174.061 28.5664 173.329 27.8351C172.598 27.1038 172.233 26.105 172.233 24.8389V10.3385Z" fill="#2C2B2B"/>
</svg>
