<svg width="179" height="44" viewBox="0 0 179 44" fill="none" xmlns="http://www.w3.org/2000/svg">
<path d="M9.33572 25.2844H3.61454C1.61878 25.2844 0 23.5971 0 21.517V10.4924H5.0027V20.2089H14.3384V29.648C20.4854 25.1087 27.4838 21.7435 35.0367 19.8668C27.435 24.1102 20.5696 29.6711 14.7509 36.2997C12.8216 38.4908 11.0122 40.802 9.32685 43.2196V25.2844H9.33572Z" fill="#2A8FEA"/>
<path d="M35.0367 3.76732V14.9075C33.205 15.3235 31.3955 15.8135 29.6171 16.3774V5.65329H0V3.76732C0 1.6872 1.61878 0 3.61454 0H31.4221C33.4179 0 35.0367 1.6872 35.0367 3.76732Z" fill="#2A8FEA"/>
<path d="M52.9152 28.3852L47.8828 8.24219H50.1395L54.0041 24.6547H54.1797L58.1181 8.24219H60.647L64.5626 24.6547H64.761L68.6027 8.24219H70.8823L65.827 28.3852H63.522L59.4564 12.3529H59.3088L55.2432 28.3852H52.9152Z" fill="white"/>
<path d="M75.637 28.3792C74.7577 28.3792 73.9551 28.1979 73.2343 27.8381C72.5135 27.4755 71.9384 26.9537 71.5167 26.267C71.095 25.5803 70.8828 24.7507 70.8828 23.7784C70.8828 22.9214 71.0413 22.2292 71.3557 21.6991C71.6701 21.1689 72.0918 20.7487 72.6183 20.441C73.1449 20.1334 73.7251 19.9054 74.3615 19.7516C74.998 19.6005 75.637 19.4797 76.2836 19.3918C77.1297 19.2764 77.8172 19.1858 78.3438 19.1226C78.8703 19.0594 79.2563 18.955 79.5016 18.8012C79.747 18.6501 79.8697 18.3919 79.8697 18.0239V17.9442C79.8697 16.9883 79.6269 16.2467 79.1412 15.7166C78.6556 15.1864 77.9195 14.92 76.9329 14.92C75.9462 14.92 75.1232 15.159 74.543 15.6369C73.9628 16.1149 73.5564 16.6258 73.3238 17.1696L71.2816 16.395C71.6471 15.4858 72.1352 14.7772 72.7436 14.269C73.3545 13.7609 74.0165 13.4038 74.7347 13.1978C75.4529 12.9918 76.1609 12.8901 76.8562 12.8901C77.3035 12.8901 77.8198 12.9451 78.4 13.0577C78.9802 13.1703 79.5476 13.401 80.0997 13.7526C80.6518 14.1042 81.1094 14.6343 81.4697 15.3458C81.8301 16.0544 82.0116 17.0021 82.0116 18.1887V28.0359H79.8697V26.0033H79.77C79.6294 26.3246 79.3892 26.6707 79.0467 27.0388C78.7067 27.4096 78.2569 27.7255 77.6971 27.9892C77.1373 28.2529 76.4498 28.3847 75.637 28.3847M75.9616 26.3191C76.8076 26.3191 77.5233 26.1406 78.1035 25.7835C78.6837 25.4264 79.1233 24.965 79.4224 24.3991C79.7214 23.8333 79.8697 23.2428 79.8697 22.6275V20.5152C79.7777 20.6306 79.5809 20.7349 79.2793 20.8283C78.9751 20.9217 78.6275 21.0041 78.2339 21.0755C77.8402 21.147 77.4568 21.2074 77.0811 21.2568C76.7079 21.3063 76.4089 21.3447 76.184 21.3694C75.6267 21.4491 75.1079 21.5782 74.6274 21.7512C74.1468 21.9243 73.7583 22.1825 73.4644 22.5203C73.1704 22.8609 73.0222 23.3224 73.0222 23.913C73.0222 24.7068 73.2982 25.3056 73.8503 25.7121C74.4024 26.1186 75.1053 26.3219 75.9616 26.3219" fill="white"/>
<path d="M95.1106 16.4569L93.1176 17.0211C92.9289 16.512 92.6021 16.0276 92.1397 15.568C91.6773 15.1084 90.9599 14.8772 89.9846 14.8772C89.1051 14.8772 88.3716 15.0891 87.7844 15.5129C87.1971 15.9368 86.9048 16.4679 86.9048 17.1009C86.9048 17.6734 87.1068 18.1275 87.5054 18.4687C87.9066 18.8073 88.5337 19.0852 89.3894 19.2999L91.5392 19.8366C92.8253 20.1586 93.7846 20.6539 94.4197 21.3227C95.0548 21.9942 95.371 22.8474 95.371 23.8822C95.371 24.7409 95.1345 25.5087 94.6588 26.1885C94.1832 26.8683 93.5242 27.405 92.6791 27.7958C91.8341 28.1893 90.8509 28.3847 89.7295 28.3847C88.2547 28.3847 87.035 28.049 86.0731 27.3802C85.1111 26.7087 84.4999 25.7399 84.2422 24.4712L86.3388 23.9345C86.5381 24.7381 86.9181 25.3408 87.4841 25.7454C88.0501 26.1472 88.7888 26.3481 89.703 26.3481C90.7287 26.3481 91.5498 26.1197 92.1689 25.6573C92.7854 25.1977 93.0937 24.6501 93.0937 24.0143C93.0937 22.9602 92.3762 22.2529 90.9439 21.8952L88.5364 21.3062C87.2077 20.9759 86.2325 20.4723 85.6107 19.7925C84.9889 19.1127 84.678 18.2596 84.678 17.233C84.678 16.3854 84.9092 15.634 85.3715 14.9818C85.8339 14.3295 86.4663 13.8176 87.2689 13.4461C88.0714 13.0745 88.9775 12.8901 89.9873 12.8901C91.4275 12.8901 92.5569 13.2176 93.3727 13.8754C94.1885 14.5332 94.7678 15.3918 95.1132 16.4569" fill="white"/>
<path d="M101.18 28.3792C100.243 28.3792 99.3892 28.1979 98.6177 27.8381C97.8461 27.4755 97.2354 26.9537 96.7855 26.267C96.3357 25.5803 96.1094 24.7507 96.1094 23.7784C96.1094 22.9214 96.2784 22.2292 96.6138 21.6991C96.9491 21.1689 97.399 20.7487 97.9606 20.441C98.5222 20.1334 99.1439 19.9054 99.82 19.7516C100.496 19.6005 101.18 19.4797 101.873 19.3918C102.775 19.2764 103.509 19.1858 104.07 19.1226C104.632 19.0594 105.044 18.955 105.306 18.8012C105.567 18.6501 105.698 18.3919 105.698 18.0239V17.9442C105.698 16.9883 105.439 16.2467 104.921 15.7166C104.403 15.1864 103.618 14.92 102.563 14.92C101.508 14.92 100.632 15.159 100.014 15.6369C99.3947 16.1149 98.9612 16.6258 98.7131 17.1696L96.5347 16.395C96.9246 15.4858 97.4453 14.7772 98.0942 14.269C98.7431 13.7609 99.4519 13.4038 100.218 13.1978C100.984 12.9918 101.739 12.8901 102.481 12.8901C102.958 12.8901 103.509 12.9451 104.128 13.0577C104.747 13.1703 105.352 13.401 105.941 13.7526C106.53 14.1042 107.015 14.6343 107.402 15.3458C107.787 16.0544 107.98 17.0021 107.98 18.1887V28.0359H105.695V26.0033H105.589C105.439 26.3246 105.183 26.6707 104.817 27.0388C104.455 27.4096 103.975 27.7255 103.375 27.9892C102.778 28.2529 102.045 28.3847 101.178 28.3847M101.527 26.3191C102.429 26.3191 103.193 26.1406 103.811 25.7835C104.43 25.4264 104.899 24.965 105.218 24.3991C105.537 23.8333 105.695 23.2428 105.695 22.6275V20.5152C105.597 20.6306 105.387 20.7349 105.066 20.8283C104.741 20.9217 104.37 21.0041 103.95 21.0755C103.531 21.147 103.119 21.2074 102.721 21.2568C102.323 21.3063 102.004 21.3447 101.764 21.3694C101.17 21.4491 100.616 21.5782 100.104 21.7512C99.591 21.9243 99.1766 22.1825 98.863 22.5203C98.5495 22.8609 98.3914 23.3224 98.3914 23.913C98.3914 24.7068 98.6858 25.3056 99.2747 25.7121C99.8636 26.1186 100.613 26.3219 101.527 26.3219" fill="white"/>
<path d="M114.948 28.3792C114.069 28.3792 113.269 28.1979 112.546 27.8381C111.826 27.4755 111.251 26.9537 110.829 26.267C110.405 25.5803 110.195 24.7507 110.195 23.7784C110.195 22.9214 110.351 22.2292 110.668 21.6991C110.985 21.1689 111.404 20.7487 111.93 20.441C112.457 20.1334 113.037 19.9054 113.673 19.7516C114.31 19.6005 114.948 19.4797 115.597 19.3918C116.443 19.2764 117.131 19.1858 117.657 19.1226C118.184 19.0594 118.569 18.955 118.815 18.8012C119.06 18.6501 119.183 18.3919 119.183 18.0239V17.9442C119.183 16.9883 118.94 16.2467 118.454 15.7166C117.969 15.1864 117.233 14.92 116.247 14.92C115.26 14.92 114.437 15.159 113.857 15.6369C113.277 16.1149 112.871 16.6258 112.638 17.1696L110.597 16.395C110.962 15.4858 111.45 14.7772 112.058 14.269C112.669 13.7609 113.331 13.4038 114.049 13.1978C114.767 12.9918 115.475 12.8901 116.17 12.8901C116.62 12.8901 117.133 12.9451 117.713 13.0577C118.293 13.1703 118.861 13.401 119.413 13.7526C119.965 14.1042 120.42 14.6343 120.782 15.3458C121.143 16.0544 121.324 17.0021 121.324 18.1887V28.0359H119.183V26.0033H119.083C118.942 26.3246 118.702 26.6707 118.36 27.0388C118.02 27.4096 117.57 27.7255 117.011 27.9892C116.451 28.2529 115.764 28.3847 114.951 28.3847M115.273 26.3191C116.119 26.3191 116.832 26.1406 117.414 25.7835C117.994 25.4264 118.434 24.965 118.733 24.3991C119.032 23.8333 119.18 23.2428 119.18 22.6275V20.5152C119.088 20.6306 118.891 20.7349 118.59 20.8283C118.288 20.9217 117.938 21.0041 117.545 21.0755C117.151 21.147 116.768 21.2074 116.395 21.2568C116.022 21.3063 115.723 21.3447 115.498 21.3694C114.941 21.4491 114.422 21.5782 113.942 21.7512C113.461 21.9243 113.073 22.1825 112.779 22.5203C112.485 22.8609 112.337 23.3224 112.337 23.913C112.337 24.7068 112.613 25.3056 113.165 25.7121C113.717 26.1186 114.419 26.3219 115.275 26.3219" fill="white"/>
<path d="M132.048 28.3827C130.423 28.3827 128.97 27.9827 127.688 27.1854C126.405 26.3881 125.399 25.2368 124.663 23.7368C123.93 22.2368 123.562 20.4315 123.562 18.3261C123.562 16.2207 123.933 14.4018 124.676 12.8964C125.42 11.391 126.431 10.2397 127.711 9.43971C128.993 8.64243 130.439 8.24243 132.045 8.24243C133.065 8.24243 134.023 8.39648 134.914 8.70459C135.805 9.01269 136.6 9.46133 137.297 10.0532C137.995 10.6451 138.564 11.3694 139.009 12.2262C139.451 13.0829 139.744 14.0532 139.885 15.1423H136.5C136.408 14.545 136.232 14.018 135.971 13.5613C135.711 13.1045 135.387 12.718 135.001 12.3964C134.615 12.0775 134.176 11.8343 133.688 11.6721C133.2 11.51 132.671 11.4289 132.109 11.4289C131.098 11.4289 130.201 11.6937 129.422 12.2262C128.643 12.7586 128.033 13.5397 127.593 14.5694C127.154 15.6018 126.934 16.8531 126.934 18.3261C126.934 19.799 127.154 21.0747 127.598 22.0963C128.043 23.1179 128.651 23.8909 129.427 24.4125C130.201 24.9341 131.093 25.1963 132.094 25.1963C132.651 25.1963 133.169 25.1206 133.65 24.9665C134.13 24.8125 134.567 24.58 134.963 24.2692C135.356 23.9584 135.685 23.5801 135.946 23.1368C136.209 22.6936 136.393 22.1828 136.5 21.6044H139.885C139.76 22.5422 139.489 23.4233 139.07 24.2449C138.651 25.0665 138.104 25.7854 137.427 26.4043C136.751 27.0233 135.961 27.507 135.057 27.8584C134.153 28.2097 133.149 28.3854 132.048 28.3854" fill="white"/>
<path d="M145.467 19.5449V28.3854H142.109V8.24243H145.391V15.8533H145.569C145.902 14.9984 146.416 14.3211 147.113 13.8243C147.813 13.3302 148.709 13.0804 149.807 13.0804C150.796 13.0804 151.655 13.3025 152.392 13.7438C153.128 14.1851 153.7 14.8291 154.109 15.6756C154.518 16.5222 154.722 17.5548 154.722 18.7705V28.3826H151.351V19.3256C151.351 18.2986 151.105 17.502 150.61 16.9386C150.117 16.3751 149.427 16.0948 148.542 16.0948C147.947 16.0948 147.417 16.2308 146.951 16.5C146.487 16.7693 146.122 17.1606 145.86 17.6686C145.595 18.1765 145.464 18.801 145.464 19.5394" fill="white"/>
<path d="M161.112 28.382C160.18 28.382 159.342 28.2084 158.6 27.8669C157.858 27.5225 157.275 27.0157 156.845 26.3436C156.418 25.6715 156.203 24.8451 156.203 23.8617C156.203 23.0215 156.356 22.3219 156.66 21.7682C156.966 21.2145 157.383 20.771 157.909 20.4405C158.439 20.1099 159.033 19.8565 159.696 19.683C160.36 19.5094 161.045 19.3855 161.752 19.3138C162.614 19.2147 163.313 19.132 163.845 19.0577C164.377 18.9861 164.764 18.8704 165.003 18.7106C165.245 18.5508 165.363 18.3002 165.363 17.9586V17.8925C165.363 17.168 165.153 16.6061 164.734 16.2012C164.315 15.799 163.705 15.5979 162.902 15.5979C162.055 15.5979 161.386 15.7852 160.895 16.1626C160.4 16.5372 160.067 16.9807 159.892 17.4903L156.687 17.022C156.939 16.1103 157.359 15.3472 157.942 14.7357C158.527 14.1242 159.239 13.6614 160.08 13.3529C160.921 13.0444 161.854 12.8901 162.875 12.8901C163.573 12.8901 164.272 12.9728 164.968 13.1381C165.667 13.3033 166.309 13.5815 166.892 13.9754C167.475 14.3694 167.943 14.8955 168.292 15.5593C168.641 16.2204 168.816 17.0496 168.816 18.0412V28.0762H165.505V26.0103H165.401C165.191 26.4207 164.898 26.8091 164.517 27.1699C164.138 27.5308 163.668 27.8255 163.103 28.0487C162.542 28.2718 161.875 28.3847 161.107 28.3847M161.991 25.7789C162.689 25.7789 163.291 25.6384 163.796 25.3547C164.304 25.0737 164.697 24.6963 164.973 24.228C165.253 23.757 165.393 23.2474 165.393 22.691V20.9336C165.28 21.0245 165.094 21.1071 164.842 21.1815C164.589 21.2558 164.302 21.3275 163.979 21.3881C163.657 21.4514 163.34 21.5038 163.031 21.5506C162.719 21.5947 162.453 21.6305 162.227 21.658C161.711 21.7296 161.252 21.8481 160.846 22.0134C160.44 22.1786 160.121 22.4045 159.884 22.691C159.648 22.9775 159.53 23.3493 159.53 23.8038C159.53 24.4567 159.761 24.9497 160.223 25.2803C160.685 25.6108 161.273 25.7761 161.991 25.7761" fill="white"/>
<path d="M178.2 16.0368H170.297V13.3245H178.2V16.0368ZM172.233 9.79077H175.476V23.7182C175.476 24.3021 175.595 24.7332 175.833 25.0143C176.071 25.2926 176.451 25.4345 176.967 25.4345C177.106 25.4345 177.263 25.4209 177.435 25.3936C177.607 25.3663 177.764 25.3363 177.904 25.3008L178.458 28.0377C178.111 28.1523 177.762 28.2397 177.41 28.297C177.056 28.3543 176.704 28.3843 176.349 28.3843C175.066 28.3843 174.061 28.0186 173.329 27.2873C172.598 26.556 172.233 25.5573 172.233 24.2912V9.79077Z" fill="white"/>
</svg>
